<svg id="font_3_" data-name="font (3)" xmlns="http://www.w3.org/2000/svg" width="87.066" height="97.332" viewBox="0 0 87.066 97.332">
  <path id="Trazado_191816" data-name="Trazado 191816" d="M165.593,10H107.8a3.8,3.8,0,0,0-3.8,3.8V84.9a5.7,5.7,0,0,0,5.7,5.7h55.89a3.8,3.8,0,0,0,3.8-3.8v-73A3.8,3.8,0,0,0,165.593,10Zm0,0" transform="translate(-84.229 -8.099)" fill="#ffd1a2"/>
  <path id="Trazado_191817" data-name="Trazado 191817" d="M55.624,78H13.8A3.8,3.8,0,0,0,10,81.8v73a3.8,3.8,0,0,0,3.8,3.8H71.593a3.8,3.8,0,0,0,3.8-3.8V97.771Zm0,0" transform="translate(-8.099 -63.172)" fill="#fff"/>
  <path id="Trazado_191818" data-name="Trazado 191818" d="M269.771,97.771H253.8a3.8,3.8,0,0,1-3.8-3.8V78Zm0,0" transform="translate(-202.475 -63.172)" fill="#ffc66c"/>
  <path id="Trazado_191819" data-name="Trazado 191819" d="M81.363,0H23.573a5.709,5.709,0,0,0-5.7,5.7v7.224H5.7A5.709,5.709,0,0,0,0,18.63V47.5a1.9,1.9,0,0,0,3.8,0V18.63a1.9,1.9,0,0,1,1.9-1.9H45.624V30.8a5.709,5.709,0,0,0,5.7,5.7H65.395V91.629a1.9,1.9,0,0,1-1.9,1.9H5.7a1.9,1.9,0,0,1-1.9-1.9V62.852a1.9,1.9,0,0,0-3.8,0V91.629a5.709,5.709,0,0,0,5.7,5.7H63.494a5.709,5.709,0,0,0,5.7-5.7V84.4H81.363a5.709,5.709,0,0,0,5.7-5.7V5.7A5.709,5.709,0,0,0,81.363,0ZM51.327,32.7a1.9,1.9,0,0,1-1.9-1.9V19.417L62.706,32.7Zm31.937,46a1.9,1.9,0,0,1-1.9,1.9H69.2v-46h0a1.9,1.9,0,0,0-.552-1.344L48.869,13.484a1.9,1.9,0,0,0-1.346-.552v0H21.672V5.7a1.9,1.9,0,0,1,1.9-1.9H74.14V20.784a1.9,1.9,0,1,0,3.8,0V3.8h3.422a1.9,1.9,0,0,1,1.9,1.9Zm0,0"/>
  <path id="Trazado_191820" data-name="Trazado 191820" d="M1.9,283.8a1.9,1.9,0,1,0-1.344-3.245A1.9,1.9,0,0,0,1.9,283.8Zm0,0" transform="translate(0 -226.772)"/>
  <path id="Trazado_191821" data-name="Trazado 191821" d="M391.9,139.332a1.9,1.9,0,0,0-1.9,1.9v.03a1.9,1.9,0,1,0,3.8,0v-.03A1.9,1.9,0,0,0,391.9,139.332Zm0,0" transform="translate(-315.86 -112.845)"/>
  <path id="Trazado_191822" data-name="Trazado 191822" d="M82,222h38.02v38.02H82Zm0,0" transform="translate(-66.412 -179.798)" fill="#26ccda"/>
  <path id="Trazado_191823" data-name="Trazado 191823" d="M143.615,279.979a1.9,1.9,0,0,1-1.762-1.187l-7.527-18.553L126.8,278.791a1.9,1.9,0,1,1-3.524-1.429l9.289-22.894a1.9,1.9,0,0,1,3.523,0l9.289,22.894a1.9,1.9,0,0,1-1.761,2.617Zm0,0" transform="translate(-99.727 -205.132)"/>
  <path id="Trazado_191824" data-name="Trazado 191824" d="M154.629,344.376H142.807a1.9,1.9,0,0,1,0-3.8h11.822a1.9,1.9,0,1,1,0,3.8Zm0,0" transform="translate(-114.12 -275.83)"/>
  <path id="Trazado_191825" data-name="Trazado 191825" d="M214.8,377.517h-4.887a1.9,1.9,0,0,1,0-3.8H214.8a1.9,1.9,0,1,1,0,3.8Zm0,0" transform="translate(-168.465 -302.671)"/>
  <path id="Trazado_191826" data-name="Trazado 191826" d="M117.073,377.517h-4.887a1.9,1.9,0,1,1,0-3.8h4.887a1.9,1.9,0,0,1,0,3.8Zm0,0" transform="translate(-89.32 -302.671)"/>
  <path id="Trazado_191827" data-name="Trazado 191827" d="M111.921,253.822H73.9a1.9,1.9,0,0,1-1.9-1.9V213.9a1.9,1.9,0,0,1,1.9-1.9h38.02a1.9,1.9,0,0,1,1.9,1.9v38.02A1.9,1.9,0,0,1,111.921,253.822ZM75.8,250.02H110.02V215.8H75.8Zm0,0" transform="translate(-58.313 -171.699)"/>
</svg>
